HIERARCHY
ROOT root
{
	OFFSET 0.000000 0.000000 0.000000
	CHANNELS 6 Xposition Yposition Zposition Zrotation Yrotation Xrotation
	JOINT lhip
	{
		OFFSET 0.058581 -0.082280 -0.017664
		CHANNELS 3 Zrotation Yrotation Xrotation
		JOINT lknee
		{
			OFFSET 0.043451 -0.386469 0.008037
			CHANNELS 3 Zrotation Yrotation Xrotation
			JOINT lankle
			{
				OFFSET -0.014790 -0.426874 -0.037428
				CHANNELS 3 Zrotation Yrotation Xrotation
				JOINT ltoe
				{
					OFFSET 0.041054 -0.060286 0.122042
					CHANNELS 3 Zrotation Yrotation Xrotation
					End Site
					{
						OFFSET 0.000000 0.000000 0.000000
					}
				}
			}
		}
	}
	JOINT rhip
	{
		OFFSET -0.060310 -0.090513 -0.013543
		CHANNELS 3 Zrotation Yrotation Xrotation
		JOINT rknee
		{
			OFFSET -0.043257 -0.383688 -0.004843
			CHANNELS 3 Zrotation Yrotation Xrotation
			JOINT rankle
			{
				OFFSET 0.019056 -0.420046 -0.034562
				CHANNELS 3 Zrotation Yrotation Xrotation
				JOINT rtoe
				{
					OFFSET -0.034840 -0.062106 0.130323
					CHANNELS 3 Zrotation Yrotation Xrotation
					End Site
					{
						OFFSET 0.000000 0.000000 0.000000
					}
				}
			}
		}
	}
	JOINT lowerback
	{
		OFFSET 0.004439 0.124404 -0.038385
		CHANNELS 3 Zrotation Yrotation Xrotation
		JOINT upperback
		{
			OFFSET 0.004488 0.137956 0.026820
			CHANNELS 3 Zrotation Yrotation Xrotation
			JOINT chest
			{
				OFFSET -0.002265 0.056032 0.002855
				CHANNELS 3 Zrotation Yrotation Xrotation
				JOINT lowerneck
				{
					OFFSET -0.013390 0.211636 -0.033468
					CHANNELS 3 Zrotation Yrotation Xrotation
					JOINT upperneck
					{
						OFFSET 0.010113 0.088937 0.050410
						CHANNELS 3 Zrotation Yrotation Xrotation
						End Site
						{
							OFFSET 0.000000 0.000000 0.000000
						}
					}
				}
				JOINT lclavicle
				{
					OFFSET 0.071702 0.114000 -0.018898
					CHANNELS 3 Zrotation Yrotation Xrotation
					JOINT lshoulder
					{
						OFFSET 0.122921 0.045205 -0.019046
						CHANNELS 3 Zrotation Yrotation Xrotation
						JOINT lelbow
						{
							OFFSET 0.255332 -0.015649 -0.022946
							CHANNELS 3 Zrotation Yrotation Xrotation
							JOINT lwrist
							{
								OFFSET 0.265709 0.012698 -0.007375
								CHANNELS 3 Zrotation Yrotation Xrotation
								End Site
								{
									OFFSET 0.000000 0.000000 0.000000
								}
							}
						}
					}
				}
				JOINT rclavicle
				{
					OFFSET -0.082954 0.112472 -0.023707
					CHANNELS 3 Zrotation Yrotation Xrotation
					JOINT rshoulder
					{
						OFFSET -0.113228 0.046853 -0.008472
						CHANNELS 3 Zrotation Yrotation Xrotation
						JOINT relbow
						{
							OFFSET -0.260127 -0.014369 -0.031269
							CHANNELS 3 Zrotation Yrotation Xrotation
							JOINT rwrist
							{
								OFFSET -0.269108 0.006794 -0.006027
								CHANNELS 3 Zrotation Yrotation Xrotation
								End Site
								{
									OFFSET 0.000000 0.000000 0.000000
								}
							}
						}
					}
				}
			}
		}
	}
}
MOTION
Frames: 12
Frame Time: 0.033333
1.203039 0.160759 1.000284 -87.343554 4.346430 83.491110 1.246237 -0.367476 6.767765 -3.952570 -14.263590 -0.151966 3.301508 8.607447 -14.694124 0.000000 -0.000000 0.000000 6.487345 0.847681 -0.542187 2.163935 1.098055 13.642397 3.072972 -3.089164 -12.154992 0.000000 -0.000000 0.000000 -0.782138 0.185211 15.944885 2.866226 -3.486629 7.031772 1.295915 -2.359296 6.192584 2.520050 -0.648963 18.447895 5.711782 -3.865511 13.679757 -22.006973 3.926160 2.162931 -63.511115 -15.144788 8.349979 22.044904 -42.632096 -22.117403 7.229976 0.914007 -30.027200 18.808859 -6.627128 0.616598 63.571764 -4.328307 12.227326 -22.652149 43.940715 3.892294 5.554020 2.336613 6.338823 
1.203588 0.162005 0.996408 -87.590601 3.349003 85.761083 0.077178 -0.618878 3.947483 -4.056242 -14.594692 0.588520 6.773417 5.908326 -8.321672 0.000000 -0.000000 0.000000 5.008407 2.128905 -2.878866 2.710528 0.505642 13.635856 2.466314 -3.441242 -11.627250 0.000000 -0.000000 0.000000 -1.425763 0.694814 12.388550 3.244147 -3.428775 8.178190 0.541041 -2.790638 6.300059 3.801630 -0.547994 18.783903 4.436398 -4.464316 13.125530 -21.920185 4.061941 2.362488 -62.646580 -12.229422 11.442165 14.109621 -43.572380 -1.981595 4.285876 0.007465 -20.019252 19.130318 -6.691410 1.119718 63.524519 -2.118660 11.246835 -23.456277 43.476867 -7.567164 3.530854 0.476795 -13.044264 
1.202917 0.163196 0.995139 -87.728244 3.423549 86.474457 0.424048 -0.185871 2.922453 -4.115214 -13.834775 1.341758 4.628145 7.197328 -12.563080 0.000000 -0.000000 0.000000 5.005121 1.767115 -3.287995 2.663993 0.274490 12.950824 2.694181 -3.210759 -10.684169 0.000000 -0.000000 0.000000 -0.850468 0.837193 11.218384 3.484346 -3.547720 8.852671 0.154252 -2.592278 6.499465 4.494039 -0.032579 18.041915 3.767665 -5.321185 12.585839 -22.205148 4.005889 2.053503 -62.875701 -10.911798 12.121529 11.497433 -42.341805 5.035334 4.484484 -0.212140 -13.173598 19.640922 -7.071207 0.794278 63.804718 -1.707156 10.505839 -23.927318 42.825792 -7.478993 3.277496 -0.955573 -11.180783 
1.201190 0.165231 0.994761 -87.377915 3.462956 86.881512 0.735327 -0.349695 2.556997 -4.268692 -13.777682 1.405928 4.372492 7.088103 -12.451286 0.000000 -0.000000 0.000000 4.928371 1.093932 -2.800416 2.932512 0.400877 11.389543 2.329614 -3.136419 -9.510098 0.000000 -0.000000 0.000000 -0.347889 0.717630 10.814489 3.507562 -3.531073 8.593259 0.186539 -2.588462 6.505986 4.236418 -0.785493 17.932226 3.684808 -5.391486 12.114553 -22.605236 4.514410 2.273937 -63.510626 -10.478864 11.801003 11.857195 -39.820895 3.803123 1.693769 0.095546 -14.912361 19.497777 -7.191344 0.840659 63.921725 -1.711598 10.418123 -23.310834 40.916928 -6.758056 4.839502 -0.925597 -10.980796 
1.200447 0.165940 0.994841 -87.090324 3.410913 86.905339 0.702390 -0.456854 2.558319 -4.240070 -13.944220 1.528097 4.163192 7.047509 -12.494213 0.000000 -0.000000 0.000000 4.699819 0.937376 -2.174379 3.175945 0.369223 10.287601 2.593579 -3.127148 -9.066188 0.000000 -0.000000 0.000000 0.001589 0.658826 10.882835 3.475100 -3.615555 8.370504 0.154445 -2.658485 6.581692 4.016351 -0.957382 17.937251 3.641744 -5.377313 12.222516 -22.913412 4.563875 2.442064 -63.709239 -10.105898 11.587410 11.719554 -37.928632 3.488028 1.892907 0.019603 -14.530063 19.522701 -7.203770 0.831117 63.860210 -1.690043 10.283882 -22.709535 39.864921 -6.406591 4.722507 -0.857176 -10.843593 
1.198975 0.167061 0.994875 -86.551720 3.324667 87.018345 0.701591 -0.338171 2.413486 -4.266923 -14.158388 1.763093 3.890872 6.773462 -12.389616 0.000000 -0.000000 0.000000 4.270162 0.399607 -1.047376 3.791268 0.266037 8.227654 2.677016 -2.993987 -8.517370 0.000000 -0.000000 0.000000 0.255839 0.788750 10.798942 3.583121 -3.861915 8.266188 0.250762 -2.736299 6.377048 3.912070 -1.292101 18.038092 3.803246 -5.425499 12.283966 -23.342016 4.537836 2.740257 -63.847617 -9.609361 11.249779 11.160354 -35.087329 3.530421 1.149350 -0.052030 -14.224251 19.692543 -7.398056 0.905089 63.500620 -1.945083 9.945684 -21.972178 38.955100 -5.841283 5.213493 -0.962809 -10.665627 
1.196189 0.167856 0.994985 -86.062538 3.289639 87.126982 0.712064 -0.099478 2.571407 -4.131486 -14.385099 1.614005 3.569125 6.418701 -12.547119 0.000000 -0.000000 0.000000 3.939861 -0.432454 0.160134 4.355861 0.599862 6.234340 2.693593 -2.756747 -7.954058 0.000000 -0.000000 0.000000 0.618471 0.858535 10.564411 3.545186 -4.132122 7.883657 0.273065 -2.858182 6.327959 3.732415 -1.763999 18.381902 3.726153 -5.419174 12.280809 -23.609764 4.577846 3.242538 -63.906535 -9.006793 10.846593 10.814984 -32.161936 3.834584 0.220982 -0.342292 -14.150140 19.710337 -7.502606 1.211036 63.423125 -2.178137 9.588864 -21.332338 37.841582 -5.100700 5.552789 -0.826695 -10.594174 
1.193075 0.168736 0.994582 -85.523396 3.077090 87.188955 0.524932 -0.156919 2.684848 -4.057253 -14.471752 1.642766 3.640798 6.230085 -12.786417 0.000000 -0.000000 0.000000 3.464505 -1.510715 1.236980 4.769372 0.745977 4.672848 2.670504 -2.254985 -7.646863 0.000000 -0.000000 0.000000 0.671384 1.299012 9.757133 3.549602 -4.778847 8.225482 0.223666 -2.999247 6.434485 3.974024 -1.939707 18.241749 3.893917 -5.788675 12.371778 -23.584215 4.575977 3.530655 -64.028367 -8.559816 10.536826 10.368579 -29.378104 4.499613 -0.577337 -0.218906 -12.797404 19.883856 -7.507749 1.408291 63.463918 -2.149049 9.231564 -21.129004 36.846534 -4.742107 6.144306 -1.149316 -10.398405 
1.192529 0.170856 0.994687 -85.683246 3.149170 87.282545 0.742447 -0.023987 2.451756 -4.111930 -14.437591 1.967779 3.630120 6.335245 -12.784322 0.000000 -0.000000 0.000000 3.640044 -1.174518 1.592873 4.912483 0.955241 3.823296 2.657959 -2.519473 -7.228165 0.000000 -0.000000 0.000000 0.571986 1.269307 9.691889 3.631796 -4.515936 8.194406 0.347913 -2.899306 6.300065 3.993668 -2.373391 18.009649 3.653302 -5.869243 12.162141 -23.661002 4.768509 3.543329 -64.160748 -7.875574 10.154010 10.297190 -27.270800 5.045126 -0.998782 0.780557 -11.864482 19.821308 -7.581436 1.209587 63.743668 -2.113550 9.034876 -20.820244 35.751606 -4.623363 6.403162 -1.242110 -10.719223 
1.188208 0.172989 0.994118 -85.491780 3.004158 87.174367 0.755505 0.194366 2.961596 -4.042123 -14.766897 1.768173 3.864484 6.343037 -12.887281 0.000000 -0.000000 0.000000 3.443042 -1.708924 2.574552 5.208535 1.119549 2.856908 2.655680 -2.339275 -7.125701 0.000000 -0.000000 0.000000 0.397425 1.746198 9.086826 3.628857 -4.818681 8.330335 0.366533 -2.966124 6.194042 4.053044 -3.024992 18.262857 4.026864 -6.353219 12.068619 -23.681586 4.959654 4.235620 -63.978442 -7.273039 9.443885 10.322179 -24.934289 4.923364 -1.433038 0.515634 -11.575267 19.854589 -7.770714 1.536941 64.030341 -2.203898 8.476112 -20.653907 34.970030 -4.522739 6.980759 -0.999812 -11.387812 
1.186909 0.175108 0.994220 -85.820645 2.959681 87.197516 0.861311 0.235351 2.973237 -4.081885 -14.616792 1.874423 3.755994 6.436512 -13.026722 0.000000 -0.000000 0.000000 3.590649 -1.511267 2.514518 5.116873 1.357986 2.993459 2.641008 -2.407895 -7.238894 0.000000 -0.000000 0.000000 0.187288 1.768957 8.700560 3.543163 -4.717056 8.579512 0.305444 -2.757741 6.415957 4.229959 -3.152892 17.933136 3.780809 -6.870435 12.153846 -23.638388 5.379964 4.052933 -63.772065 -7.008679 9.137415 10.362985 -23.527294 4.283667 -1.276704 0.956805 -11.521596 20.050410 -7.749922 1.289806 64.116495 -1.906841 8.753636 -20.242624 34.507717 -4.237191 6.309994 -0.724001 -11.112905 
1.187013 0.176779 0.994863 -86.316142 3.027644 87.002859 0.980495 0.118847 3.054107 -4.089722 -14.221838 2.115822 3.610866 6.793470 -13.086039 0.000000 -0.000000 0.000000 3.787727 -0.883546 2.564072 5.120633 1.030758 3.190968 2.602802 -2.383900 -7.023326 0.000000 -0.000000 0.000000 0.198571 1.626940 9.303890 3.466247 -4.250668 8.261015 0.303939 -2.694325 6.256270 4.066208 -3.309797 17.892858 3.543580 -6.905841 12.194398 -23.947471 5.446967 4.050425 -63.440743 -6.524064 8.618034 10.892601 -22.867878 3.058240 -1.125541 0.391974 -10.978664 19.966761 -7.521837 1.245495 64.282055 -2.398317 9.006359 -20.292829 35.304978 -4.448365 6.393748 -0.482851 -11.875215 
